<?xml version="1.0" standalone="no"?><!-- Generator: Gravit.io --><svg xmlns="http://www.w3.org/2000/svg" xmlns:xlink="http://www.w3.org/1999/xlink" style="isolation:isolate" viewBox="0 0 500 500" width="500" height="500"><defs><clipPath id="_clipPath_FHFwwWA0S1KqEVXFnKoHrsheiROrLhSO"><rect width="500" height="500"/></clipPath></defs><g clip-path="url(#_clipPath_FHFwwWA0S1KqEVXFnKoHrsheiROrLhSO)"><circle vector-effect="non-scaling-stroke" cx="250" cy="250" r="200" fill="rgb(184,233,148)"/><g><linearGradient id="_lgradient_0" x1="0.5253449415376568" y1="0.4571704529856863" x2="0.34092804885843253" y2="0.7368694510721159" gradientTransform="matrix(227.851,0,0,204.505,131.5,147.553)" gradientUnits="userSpaceOnUse"><stop offset="0%" stop-opacity="1" style="stop-color:rgb(192,133,82)"/><stop offset="100%" stop-opacity="1" style="stop-color:rgb(137,87,56)"/></linearGradient><path d=" M 226.389 160.913 C 216.357 152.571 203.463 147.553 189.396 147.553 C 157.422 147.553 131.5 173.475 131.5 205.449 C 131.5 224.364 140.572 241.16 154.601 251.725 L 264.462 338.698 C 274.493 347.041 287.387 352.058 301.455 352.058 C 333.429 352.058 359.351 326.136 359.351 294.163 C 359.351 275.246 350.277 258.451 336.249 247.886 L 226.389 160.913 Z " fill="url(#_lgradient_0)"/><linearGradient id="_lgradient_1" x1="0.4068392087443131" y1="0.5924690438676263" x2="0.7656228994625749" y2="0.23816999026552937" gradientTransform="matrix(208.218,0,0,177.853,131.5,174.205)" gradientUnits="userSpaceOnUse"><stop offset="0%" stop-opacity="0" style="stop-color:rgb(137,87,56)"/><stop offset="100%" stop-opacity="1" style="stop-color:rgb(94,48,35)"/></linearGradient><path d=" M 301.455 352.058 C 316.123 352.058 329.516 346.599 339.718 337.606 C 320.772 323.321 292.483 304.285 261.563 291.369 C 206.237 268.259 214.641 236.043 182.427 217.835 C 150.213 199.626 174.722 211.531 162.817 191.924 C 156.371 181.306 147.462 176.438 140.646 174.205 C 134.858 183.219 131.5 193.941 131.5 205.449 C 131.5 224.364 140.572 241.16 154.601 251.725 L 264.462 338.698 C 274.493 347.041 287.387 352.058 301.455 352.058 L 301.455 352.058 Z " fill="url(#_lgradient_1)"/><linearGradient id="_lgradient_2" x1="0.5475156587316254" y1="0.40296773568170074" x2="0.3716668661509487" y2="0.7055310236859875" gradientTransform="matrix(180.551,0,0,159.063,178.8,147.553)" gradientUnits="userSpaceOnUse"><stop offset="0%" stop-opacity="0" style="stop-color:rgb(137,87,56)"/><stop offset="100%" stop-opacity="1" style="stop-color:rgb(94,48,35)"/></linearGradient><path d=" M 336.249 247.886 L 226.389 160.913 C 216.357 152.571 203.463 147.553 189.396 147.553 C 185.778 147.553 182.235 147.887 178.8 148.524 C 184.821 158.798 193.285 170.616 202.937 176.502 C 222.08 188.173 234.22 203.583 256.164 220.389 C 278.11 237.198 300.054 246.069 300.054 246.069 L 358.003 306.615 C 358.882 302.603 359.351 298.437 359.351 294.163 C 359.351 275.246 350.277 258.451 336.249 247.886 L 336.249 247.886 Z " fill="url(#_lgradient_2)"/><linearGradient id="_lgradient_3" x1="0.5354549263177517" y1="0.43194193655845114" x2="0.35444921680992164" y2="0.7433774726569045" gradientTransform="matrix(103.653,0,0,92.914,177.724,189.575)" gradientUnits="userSpaceOnUse"><stop offset="0%" stop-opacity="0" style="stop-color:rgb(137,87,56)"/><stop offset="100%" stop-opacity="1" style="stop-color:rgb(94,48,35)"/></linearGradient><path d=" M 281.377 282.489 C 281.377 282.489 253.83 278.753 232.819 246.537 C 211.808 214.319 177.724 189.575 177.724 189.575 C 177.724 189.575 222.08 203.114 241.223 227.861 C 260.366 252.606 281.377 282.489 281.377 282.489 Z " fill="url(#_lgradient_3)"/><linearGradient id="_lgradient_4" x1="0.5215095301816817" y1="0.5851703785082354" x2="0.27747751207249616" y2="0.000629316430687088" gradientTransform="matrix(82.272,0,0,63.611,264.052,198.453)" gradientUnits="userSpaceOnUse"><stop offset="0%" stop-opacity="0" style="stop-color:rgb(137,87,56)"/><stop offset="100%" stop-opacity="1" style="stop-color:rgb(94,48,35)"/></linearGradient><path d=" M 336.249 247.886 L 274.13 198.708 C 272.73 198.655 271.425 198.574 270.248 198.475 C 265.827 198.098 262.677 202.733 264.657 206.705 C 265.369 208.134 266.297 209.291 267.353 210.24 L 314.273 257.16 C 320.31 263.946 332.503 261.711 332.503 261.711 C 337.634 260.914 342.231 259.444 346.325 257.582 C 343.368 253.96 339.985 250.7 336.249 247.886 L 336.249 247.886 Z " fill="url(#_lgradient_4)"/><radialGradient id="_rgradient_0" fx="373.4289667322" fy="317.6444805078" cx="373.4289667322" cy="317.6444805078" r="122.1964823102" gradientTransform="matrix(109.987,0,0,116.182,249.363,236.265)" gradientUnits="userSpaceOnUse"><stop offset="0%" stop-opacity="1" style="stop-color:rgb(242,233,220)"/><stop offset="49.35%" stop-opacity="1" style="stop-color:rgb(241,231,218)"/><stop offset="67.12%" stop-opacity="1" style="stop-color:rgb(239,226,211)"/><stop offset="79.79%" stop-opacity="1" style="stop-color:rgb(234,216,200)"/><stop offset="89.97%" stop-opacity="1" style="stop-color:rgb(228,202,183)"/><stop offset="98.65%" stop-opacity="1" style="stop-color:rgb(220,183,161)"/><stop offset="100%" stop-opacity="1" style="stop-color:rgb(218,180,157)"/></radialGradient><path d=" M 359.351 294.161 C 359.351 326.136 334.729 352.447 304.357 352.447 C 268.615 352.447 249.363 330.805 249.363 298.831 C 249.363 266.856 273.983 236.265 304.357 236.265 C 334.729 236.265 359.351 262.187 359.351 294.161 L 359.351 294.161 Z " fill="url(#_rgradient_0)"/><linearGradient id="_lgradient_5" x1="0.9107587126182095" y1="0.7148448082831005" x2="-0.07733402909764042" y2="0.17845115745641105" gradientTransform="matrix(91.837,0,0,91.009,263.467,260.717)" gradientUnits="userSpaceOnUse"><stop offset="0%" stop-opacity="0" style="stop-color:rgb(218,180,157)"/><stop offset="43.85%" stop-opacity="0.439216" style="stop-color:rgb(206,158,122)"/><stop offset="100%" stop-opacity="1" style="stop-color:rgb(192,133,82)"/></linearGradient><path d=" M 310.404 351.726 C 293.117 350.214 263.467 333.827 263.467 310.962 C 263.467 273.237 288.807 260.283 311.458 260.728 C 339.575 261.279 369.796 297.491 347.661 326.276 C 336.287 341.065 308.673 344.068 293.309 329.165 C 283.952 320.09 281.518 303.775 287.659 294.027 C 302.491 270.479 332.729 283.431 330.391 300.65 C 330.105 302.764 329.503 304.446 328.67 305.767 C 326.079 309.885 320.036 306.505 321.69 301.894 C 321.92 301.252 322.09 300.542 322.189 299.752 C 323.563 288.769 303.395 284.948 296.978 294.499 C 290.561 304.05 295.144 319.332 307.519 322.676 C 319.896 326.019 337.721 321.876 341.493 310.942 C 346.616 296.096 339.45 271.206 311.458 269.881 C 288.825 268.809 270.995 285.536 270.995 310.964 C 270.995 333.827 293.116 350.214 310.404 351.726 L 310.404 351.726 Z " fill="url(#_lgradient_5)"/><linearGradient id="_lgradient_6" x1="0.5320814323349456" y1="0.34822555514873077" x2="0.3324827500245782" y2="1.2944706873310325" gradientTransform="matrix(90.628,0,0,94.83,260.988,256.896)" gradientUnits="userSpaceOnUse"><stop offset="0%" stop-opacity="1" style="stop-color:rgb(218,180,157)"/><stop offset="96.67999999999999%" stop-opacity="1" style="stop-color:rgb(192,133,82)"/></linearGradient><path d=" M 307.306 351.726 C 290.248 350.151 260.988 333.076 260.988 309.252 C 260.988 269.942 285.995 256.444 308.348 256.907 C 336.094 257.482 365.918 295.213 344.073 325.207 C 332.85 340.616 305.599 343.746 290.438 328.219 C 281.203 318.761 278.802 301.761 284.861 291.604 C 299.5 267.067 329.339 280.563 327.031 298.506 C 326.748 300.708 326.154 302.46 325.334 303.838 C 322.775 308.127 316.812 304.607 318.444 299.802 C 318.67 299.133 318.839 298.392 318.936 297.571 C 320.292 286.125 300.39 282.144 294.058 292.096 C 287.726 302.048 292.248 317.973 304.462 321.455 C 316.674 324.939 334.264 320.623 337.987 309.23 C 343.041 293.759 335.969 267.825 308.346 266.443 C 286.013 265.326 268.418 282.757 268.418 309.252 C 268.418 333.076 290.248 350.151 307.306 351.726 L 307.306 351.726 Z " fill="url(#_lgradient_6)"/><linearGradient id="_lgradient_7" x1="0.5487362352340424" y1="0.42444460353754654" x2="0.1921217272547966" y2="1.0188759868983968" gradientTransform="matrix(56.232,0,0,45.857,312.268,190.388)" gradientUnits="userSpaceOnUse"><stop offset="0%" stop-opacity="1" style="stop-color:rgb(172,193,48)"/><stop offset="100%" stop-opacity="1" style="stop-color:rgb(151,160,59)"/></linearGradient><path d=" M 312.268 199.075 C 312.268 199.075 350.013 166.645 368.29 227.105 C 369.053 229.629 367.672 232.298 365.18 233.162 C 353.212 237.323 320.092 244.395 312.268 199.075 L 312.268 199.075 Z " fill="url(#_lgradient_7)"/><linearGradient id="_lgradient_8" x1="0.39085264410912446" y1="0.8093421519894599" x2="0.6049178332417" y2="0.300687489529602" gradientTransform="matrix(55.854,0,0,37.17,312.268,199.075)" gradientUnits="userSpaceOnUse"><stop offset="0%" stop-opacity="0" style="stop-color:rgb(151,160,59)"/><stop offset="100%" stop-opacity="1" style="stop-color:rgb(87,92,85)"/></linearGradient><path d=" M 365.182 233.162 C 366.562 232.683 367.599 231.649 368.122 230.392 C 343.583 212.385 312.268 199.075 312.268 199.075 C 320.092 244.395 353.212 237.323 365.182 233.162 Z " fill="url(#_lgradient_8)"/><linearGradient id="_lgradient_9" x1="0.590719987559674" y1="0.22564607980693685" x2="0.4780369589105682" y2="0.39683464424640746" gradientTransform="matrix(47.759,0,0,28.772,312.159,198.84)" gradientUnits="userSpaceOnUse"><stop offset="0%" stop-opacity="1" style="stop-color:rgb(151,160,59)"/><stop offset="100%" stop-opacity="1" style="stop-color:rgb(108,125,71)"/></linearGradient><path d=" M 348.941 224.631 C 348.719 224.172 348.531 223.697 348.337 223.228 C 348.142 222.762 347.948 222.299 347.78 221.825 C 347.603 221.355 347.493 220.858 347.375 220.37 C 347.259 219.881 347.073 219.431 346.815 219.004 C 346.551 218.583 346.268 218.173 345.929 217.768 C 346.549 218.068 347.171 218.366 347.793 218.664 L 350.812 220.162 C 351.823 220.657 352.794 221.209 353.798 221.718 C 355.783 222.773 357.714 223.896 359.575 225.154 L 359.918 224.76 L 358.663 223.59 L 358.032 223.002 C 357.817 222.812 357.593 222.639 357.372 222.456 C 356.481 221.751 355.604 220.999 354.678 220.341 C 352.856 218.965 350.973 217.69 349.093 216.401 C 348.724 216.162 348.355 215.923 347.988 215.685 C 348.351 215.645 348.71 215.58 349.06 215.457 C 349.534 215.292 350.013 215.115 350.505 215.01 C 350.993 214.896 351.489 214.808 351.986 214.719 C 352.483 214.629 352.986 214.529 353.492 214.468 C 354.506 214.298 355.532 214.222 356.586 214.115 L 356.626 213.828 C 355.62 213.479 354.579 213.204 353.517 213.018 C 352.988 212.92 352.452 212.858 351.914 212.79 C 351.377 212.75 350.836 212.71 350.293 212.699 C 349.749 212.683 349.2 212.636 348.646 212.614 C 348.095 212.604 347.552 212.685 347.035 212.88 C 346.934 212.92 346.833 212.96 346.731 213.003 C 345.639 213.473 344.383 213.359 343.37 212.734 L 343.352 212.721 C 341.591 211.633 339.81 210.584 338.032 209.524 C 338.542 209.459 339.016 209.352 339.484 209.226 C 339.963 209.087 340.406 208.884 340.824 208.604 C 341.24 208.325 341.659 208.034 342.11 207.81 C 342.555 207.577 343.012 207.367 343.471 207.156 C 343.931 206.944 344.392 206.723 344.867 206.537 C 345.806 206.118 346.78 205.789 347.773 205.421 L 347.739 205.132 C 346.679 205.047 345.601 205.04 344.529 205.127 C 343.99 205.163 343.459 205.237 342.92 205.308 C 342.388 205.403 341.855 205.501 341.327 205.626 C 340.797 205.745 340.253 205.837 339.712 205.955 C 339.175 206.083 338.669 206.297 338.217 206.615 C 338.02 206.758 337.824 206.91 337.636 207.072 C 336.721 207.864 335.382 207.933 334.349 207.3 C 333.463 206.758 332.577 206.212 331.687 205.675 C 330.561 204.993 329.404 204.371 328.225 203.794 C 328.662 203.727 329.076 203.633 329.485 203.521 C 329.964 203.384 330.407 203.181 330.823 202.899 C 331.241 202.621 331.66 202.33 332.111 202.107 C 332.554 201.872 333.011 201.664 333.472 201.453 C 333.93 201.241 334.392 201.019 334.866 200.834 C 335.805 200.415 336.779 200.086 337.774 199.719 L 337.739 199.429 C 336.68 199.342 335.602 199.337 334.528 199.422 C 333.991 199.46 333.458 199.534 332.919 199.605 C 332.389 199.7 331.854 199.796 331.326 199.921 C 330.798 200.042 330.254 200.134 329.711 200.252 C 329.176 200.379 328.67 200.594 328.218 200.912 C 327.773 201.232 327.344 201.597 326.974 202.038 C 326.549 202.543 325.862 202.736 325.247 202.498 C 323.652 201.885 320.761 200.796 319.182 200.324 C 316.982 199.682 314.743 199.12 312.38 198.84 L 312.159 199.314 C 313.882 200.946 315.714 202.337 317.58 203.649 C 319.45 204.955 321.361 206.166 323.31 207.297 C 323.345 207.316 323.379 207.336 323.413 207.356 C 324.043 207.721 324.31 208.463 324.109 209.163 C 323.961 209.676 323.894 210.197 323.867 210.709 C 323.845 211.262 323.938 211.803 324.12 212.323 C 324.316 212.842 324.533 213.348 324.717 213.858 C 324.898 214.37 325.104 214.873 325.312 215.37 C 325.543 215.862 325.769 216.35 326.03 216.822 C 326.538 217.771 327.125 218.674 327.771 219.518 L 328.033 219.391 C 327.803 218.357 327.554 217.359 327.398 216.343 C 327.299 215.844 327.234 215.336 327.165 214.835 C 327.093 214.334 327.022 213.837 326.977 213.336 C 326.923 212.837 326.941 212.327 326.95 211.824 C 326.959 211.323 326.89 210.839 326.748 210.361 C 326.585 209.846 326.391 209.336 326.131 208.815 C 327.189 209.342 328.263 209.832 329.355 210.287 C 330.23 210.643 331.405 211.137 332.436 211.575 C 333.532 212.039 334.239 213.151 334.127 214.338 C 334.071 214.916 334.101 215.5 334.072 216.034 C 334.051 216.585 334.143 217.126 334.326 217.646 C 334.521 218.165 334.738 218.674 334.922 219.183 C 335.103 219.695 335.311 220.198 335.517 220.695 C 335.749 221.185 335.975 221.673 336.235 222.147 C 336.743 223.094 337.331 223.999 337.978 224.843 L 338.238 224.716 C 338.009 223.682 337.759 222.684 337.604 221.666 C 337.504 221.167 337.439 220.659 337.371 220.158 C 337.298 219.657 337.228 219.16 337.184 218.659 C 337.128 218.16 337.146 217.65 337.155 217.149 C 337.164 216.647 337.096 216.164 336.953 215.686 C 336.665 214.779 336.291 213.886 335.589 212.922 C 337.625 213.867 339.674 214.797 341.694 215.771 L 341.773 215.808 C 343.016 216.374 343.894 217.567 343.963 218.928 C 343.981 219.314 344.037 219.692 344.111 220.059 C 344.227 220.599 344.453 221.1 344.76 221.559 C 345.077 222.011 345.415 222.449 345.722 222.897 C 346.024 223.348 346.352 223.782 346.675 224.212 C 347.024 224.628 347.364 225.046 347.735 225.438 C 348.465 226.228 349.259 226.955 350.096 227.611 L 350.317 227.423 C 349.838 226.479 349.346 225.575 348.941 224.631 L 348.941 224.631 Z " fill="url(#_lgradient_9)"/><linearGradient id="_lgradient_10" x1="0.5040963692456688" y1="0.4023218062406322" x2="0.6091197893488998" y2="0.7562880523132701" gradientTransform="matrix(60.018,0,0,30.795,264.052,183.413)" gradientUnits="userSpaceOnUse"><stop offset="0%" stop-opacity="1" style="stop-color:rgb(192,133,82)"/><stop offset="100%" stop-opacity="1" style="stop-color:rgb(137,87,56)"/></linearGradient><path d=" M 270.248 198.475 C 281.229 199.406 302.802 198.961 319.137 184.412 C 320.056 183.595 321.321 183.226 322.52 183.505 C 323.99 183.848 325.133 185.105 322.466 189.108 C 317.797 196.111 305.657 210.586 284.646 213.853 C 284.646 213.853 269.599 216.618 264.657 206.705 C 262.677 202.733 265.827 198.1 270.248 198.475 L 270.248 198.475 Z " fill="url(#_lgradient_10)"/><linearGradient id="_lgradient_11" x1="0.32765213954592376" y1="0.2977846362145421" x2="0.650332110459317" y2="0.8678716151429967" gradientTransform="matrix(23.593,0,0,35.527,286.502,161.266)" gradientUnits="userSpaceOnUse"><stop offset="0%" stop-opacity="1" style="stop-color:rgb(255,229,72)"/><stop offset="96.88%" stop-opacity="1" style="stop-color:rgb(151,160,59)"/></linearGradient><path d=" M 296.539 196.793 C 296.539 196.793 271.933 183.686 299.775 161.848 C 300.938 160.937 302.612 161.116 303.57 162.239 C 308.176 167.642 318.604 183.492 296.539 196.793 L 296.539 196.793 Z " fill="url(#_lgradient_11)"/><linearGradient id="_lgradient_12" x1="0.5232352026070544" y1="0.4773987652635455" x2="-0.8261495070575953" y2="0.7129872842160656" gradientTransform="matrix(13.557,0,0,35.525,296.539,161.268)" gradientUnits="userSpaceOnUse"><stop offset="0%" stop-opacity="0" style="stop-color:rgb(151,160,59)"/><stop offset="100%" stop-opacity="1" style="stop-color:rgb(87,92,85)"/></linearGradient><path d=" M 303.57 162.239 C 303.039 161.615 302.288 161.284 301.525 161.268 C 297.117 177.74 296.539 196.793 296.539 196.793 C 318.604 183.492 308.176 167.642 303.57 162.239 Z " fill="url(#_lgradient_12)"/></g></g></svg>